<?xml version="1.0" encoding="UTF-8" standalone="no"?>
<!-- Created with Inkscape (http://www.inkscape.org/) -->

<svg
   xmlns:dc="http://purl.org/dc/elements/1.1/"
   xmlns:cc="http://creativecommons.org/ns#"
   xmlns:rdf="http://www.w3.org/1999/02/22-rdf-syntax-ns#"
   xmlns:svg="http://www.w3.org/2000/svg"
   xmlns="http://www.w3.org/2000/svg"
   xmlns:sodipodi="http://sodipodi.sourceforge.net/DTD/sodipodi-0.dtd"
   xmlns:inkscape="http://www.inkscape.org/namespaces/inkscape"
   width="150mm"
   height="150mm"
   viewBox="0 0 150 150"
   version="1.1"
   id="svg7680"
   inkscape:version="0.92.2 2405546, 2018-03-11"
   sodipodi:docname="pieces.svg">
  <defs
     id="defs7674" />
  <sodipodi:namedview
     id="base"
     pagecolor="#ffffff"
     bordercolor="#666666"
     borderopacity="1.0"
     inkscape:pageopacity="0.0"
     inkscape:pageshadow="2"
     inkscape:zoom="0.7"
     inkscape:cx="334.12839"
     inkscape:cy="390.12791"
     inkscape:document-units="mm"
     inkscape:current-layer="layer1"
     showgrid="false"
     inkscape:window-width="1334"
     inkscape:window-height="1042"
     inkscape:window-x="578"
     inkscape:window-y="6"
     inkscape:window-maximized="0" />
  <metadata
     id="metadata7677">
    <rdf:RDF>
      <cc:Work
         rdf:about="">
        <dc:format>image/svg+xml</dc:format>
        <dc:type
           rdf:resource="http://purl.org/dc/dcmitype/StillImage" />
        <dc:title></dc:title>
      </cc:Work>
    </rdf:RDF>
  </metadata>
  <g
     inkscape:label="Calque 1"
     inkscape:groupmode="layer"
     id="layer1"
     transform="translate(0,-147)">
    <path
       style="color:#000000;font-style:normal;font-variant:normal;font-weight:normal;font-stretch:normal;font-size:medium;line-height:normal;font-family:sans-serif;font-variant-ligatures:normal;font-variant-position:normal;font-variant-caps:normal;font-variant-numeric:normal;font-variant-alternates:normal;font-feature-settings:normal;text-indent:0;text-align:start;text-decoration:none;text-decoration-line:none;text-decoration-style:solid;text-decoration-color:#000000;letter-spacing:normal;word-spacing:normal;text-transform:none;writing-mode:lr-tb;direction:ltr;text-orientation:mixed;dominant-baseline:auto;baseline-shift:baseline;text-anchor:start;white-space:normal;shape-padding:0;clip-rule:nonzero;display:inline;overflow:visible;visibility:visible;opacity:1;isolation:auto;mix-blend-mode:normal;color-interpolation:sRGB;color-interpolation-filters:linearRGB;solid-color:#000000;solid-opacity:1;vector-effect:none;fill:#f2f2f2;fill-opacity:1;fill-rule:nonzero;stroke:#ff0000;stroke-width:0.00999997;stroke-linecap:square;stroke-linejoin:miter;stroke-miterlimit:4;stroke-dasharray:none;stroke-dashoffset:0;stroke-opacity:1;color-rendering:auto;image-rendering:auto;shape-rendering:auto;text-rendering:auto;enable-background:accumulate"
       d="m 21.566096,156.93753 c -1.982102,3.3296 -4.37647,6.7258 -6.387772,10.0414 -0.376399,0.7505 -0.7611,1.5176 -1.067199,2.2789 1.581499,2.1656 4.208801,3.3124 6.7452,3.9311 0.3404,0.1568 1.028999,-0.021 1.1177,0.3456 0.057,1.2894 0.091,2.5795 0.1279,3.8696 -0.6223,-0.091 -1.1498,0.001 -1.387499,0.653 -0.834602,1.1797 -1.669301,2.3593 -2.5039,3.5389 1.0356,1.4642 2.0716,2.928 3.107399,4.392 l -3.107399,4.392 c 0.9886,1.3974 1.976998,2.7948 2.966,4.192 h 4.1445 c 1.036198,-1.4636 2.070798,-2.9284 3.106298,-4.3926 h 4.351102 c 0.988999,-1.3968 1.976498,-2.7947 2.9649,-4.192 -0.988201,-1.3975 -1.976501,-2.795 -2.964702,-4.1925 h -4.354099 c -1.0355,-1.4645 -2.071201,-2.9289 -3.106799,-4.3934 -0.774102,0.1683 -1.0967,-0.1158 -0.9209,-0.8996 0,-0.9941 -0.014,-1.9885 -0.061,-2.9816 3.8144,-0.017 7.7842,-1.2524 10.623,-3.835 0.572198,-0.7851 -0.266401,-1.6231 -0.661602,-2.2776 -0.623398,-0.9991 -1.038299,-2.1107 -1.633098,-3.1305 -1.3144,-2.408 -2.4844,-4.9922 -4.408601,-6.9852 -0.1793,-0.1491 -0.5387,-0.5952 -0.4201,-0.063 v 14.1722 h -6.199831 v -14.5763 l -0.053,0.085 z"
       id="path4896-0-0-4-1-9-1-6-8-5-4-1-7-0-1"
       inkscape:connector-curvature="0"
       sodipodi:nodetypes="cccccccccccccccccccccccccccccc" />
    <path
       style="color:#000000;font-style:normal;font-variant:normal;font-weight:normal;font-stretch:normal;font-size:medium;line-height:normal;font-family:sans-serif;font-variant-ligatures:normal;font-variant-position:normal;font-variant-caps:normal;font-variant-numeric:normal;font-variant-alternates:normal;font-feature-settings:normal;text-indent:0;text-align:start;text-decoration:none;text-decoration-line:none;text-decoration-style:solid;text-decoration-color:#000000;letter-spacing:normal;word-spacing:normal;text-transform:none;writing-mode:lr-tb;direction:ltr;text-orientation:mixed;dominant-baseline:auto;baseline-shift:baseline;text-anchor:start;white-space:normal;shape-padding:0;clip-rule:nonzero;display:inline;overflow:visible;visibility:visible;opacity:1;isolation:auto;mix-blend-mode:normal;color-interpolation:sRGB;color-interpolation-filters:linearRGB;solid-color:#000000;solid-opacity:1;vector-effect:none;fill:#f2f2f2;fill-opacity:1;fill-rule:nonzero;stroke:#ff0000;stroke-width:0.00999997;stroke-linecap:square;stroke-linejoin:miter;stroke-miterlimit:4;stroke-dasharray:none;stroke-dashoffset:0;stroke-opacity:1;color-rendering:auto;image-rendering:auto;shape-rendering:auto;text-rendering:auto;enable-background:accumulate"
       d="m 28.225656,271.04371 c -0.3868,0.2885 -1.0663,-0.5198 -1.5721,-0.6771 -1.2364,-0.7137 -2.4729,-1.4275 -3.7093,-2.1413 -0.1576,0.382 -0.381,0.7811 -0.4694,1.162 0.232,0.3272 0.5023,0.6245 0.7795,0.9134 -0.807,0.735 -1.618,1.4653 -2.430199,2.1946 -0.8683,-0.2965 -1.7365,-0.5933 -2.6047,-0.8899 -1.3871,1.0032 -2.7742,2.0064 -4.1613,3.0096 0.5068,1.7201 1.014,3.4401 1.5212,5.1601 -1.4527,1.0511 -2.9056,2.102 -4.3584,3.153 0.4836,1.6418 0.9673,3.2836 1.451,4.9254 1.3074,0.4462 2.614899,0.8924 3.9223,1.3386 1.3868,-1.0034 2.7735,-2.0067 4.1603,-3.0101 -0.5069,-1.7198 -1.0139,-3.4396 -1.5209,-5.1594 1.4533,-1.051 2.906799,-2.1017 4.360199,-3.1525 -0.3701,-1.2554 -0.7402,-2.5109 -1.1104,-3.7662 0.9091,-0.7749 1.8209,-1.5474 2.6971,-2.3596 3.4349,1.9961 7.6657,2.3166 11.525801,1.4184 2.448201,-0.5982 4.799399,-1.6741 6.643101,-3.4108 0.511199,-0.8216 -0.354002,-1.6312 -0.7439,-2.3023 -0.5686,-0.9526 -0.974101,-1.9928 -1.5797,-2.9299 -1.420202,-2.3492 -2.9738,-4.8018 -5.383401,-6.2504 -2.472301,4.2581 -4.944501,8.5163 -7.416801,12.7744 z"
       id="path4884-4-7-0-7-8-5-6-9-0-1-6-1-6-4"
       inkscape:connector-curvature="0" />
    <path
       style="color:#000000;font-style:normal;font-variant:normal;font-weight:normal;font-stretch:normal;font-size:medium;line-height:normal;font-family:sans-serif;font-variant-ligatures:normal;font-variant-position:normal;font-variant-caps:normal;font-variant-numeric:normal;font-variant-alternates:normal;font-feature-settings:normal;text-indent:0;text-align:start;text-decoration:none;text-decoration-line:none;text-decoration-style:solid;text-decoration-color:#000000;letter-spacing:normal;word-spacing:normal;text-transform:none;writing-mode:lr-tb;direction:ltr;text-orientation:mixed;dominant-baseline:auto;baseline-shift:baseline;text-anchor:start;white-space:normal;shape-padding:0;clip-rule:nonzero;display:inline;overflow:visible;visibility:visible;opacity:1;isolation:auto;mix-blend-mode:normal;color-interpolation:sRGB;color-interpolation-filters:linearRGB;solid-color:#000000;solid-opacity:1;vector-effect:none;fill:#f2f2f2;fill-opacity:1;fill-rule:nonzero;stroke:#ff0000;stroke-width:0.00999997;stroke-linecap:square;stroke-linejoin:miter;stroke-miterlimit:4;stroke-dasharray:none;stroke-dashoffset:0;stroke-opacity:1;color-rendering:auto;image-rendering:auto;shape-rendering:auto;text-rendering:auto;enable-background:accumulate"
       d="m 28.335043,208.72572 c -2.133899,2.5612 -3.4974,5.6397 -5.144699,8.51329 -0.589499,1.0583 -1.176901,2.1806 -1.5939,3.2818 0.2326,0.3287 0.503801,0.6275 0.782201,0.9176 -0.807001,0.7349 -1.618001,1.4651 -2.430301,2.1943 -0.868201,-0.2964 -1.736299,-0.5931 -2.6045,-0.8896 -1.3871,1.0032 -2.7743,2.0063 -4.161499,3.0095 0.506899,1.7202 1.014097,3.4402 1.521298,5.1602 -1.4527,1.0511 -2.905598,2.1019 -4.358399,3.1529 0.483701,1.6418 0.967301,3.2835 1.450999,4.9252 l 3.922202,1.3389 c 1.386797,-1.0035 2.773598,-2.0069 4.160398,-3.0104 -0.506899,-1.7198 -1.013799,-3.4396 -1.520698,-5.1593 1.4531,-1.051 2.906498,-2.1016 4.359799,-3.1524 -0.370001,-1.2554 -0.739802,-2.5109 -1.1102,-3.7662 0.909101,-0.7749 1.8209,-1.5474 2.697099,-2.3598 1.601902,0.8865 3.311501,1.5169 5.135901,1.7354 0.061,1.3442 0.096,2.6892 0.1352,4.0342 -0.622401,-0.091 -1.150099,0.001 -1.3877,0.653 -0.834599,1.1797 -1.669201,2.3593 -2.503699,3.539 1.035399,1.4641 2.071298,2.9281 3.107198,4.3919 -1.035699,1.4641 -2.0715,2.928 -3.107198,4.392 0.988398,1.3975 1.976998,2.7948 2.965799,4.192 h 4.144701 c 1.0361,-1.4636 2.070798,-2.9283 3.1062,-4.3924 h 4.3512 c 0.988899,-1.3968 1.976498,-2.7947 2.964799,-4.1919 l -2.964601,-4.1928 h -4.354099 c -1.0355,-1.4644 -2.071101,-2.9288 -3.1066,-4.3932 -0.7742,0.1682 -1.097,-0.1156 -0.9211,-0.8996 0,-0.9942 -0.014,-1.9887 -0.061,-2.982 3.822599,-0.024 7.756998,-1.2361 10.623499,-3.8356 0.5695,-0.7875 -0.265199,-1.621 -0.662299,-2.2766 -0.583102,-0.9214 -0.951,-1.94999 -1.547101,-2.86219 -1.4082,-2.3555 -3.252319,-4.8087 -5.616721,-6.3016 -1.1733,4.4119 -2.346399,8.82379 -3.5199,13.23559 -2.127999,-0.5511 -3.95628,-1.1024 -6.084279,-1.6534 1.109499,-4.1144 2.226599,-8.24109 3.3318,-12.34779 z"
       id="path4896-0-0-4-1-9-1-6-8-5-9-2-2-1-5-9"
       inkscape:connector-curvature="0"
       sodipodi:nodetypes="cccccccccccccccccccccccccccccccccccccccc" />
    <path
       style="color:#000000;font-style:normal;font-variant:normal;font-weight:normal;font-stretch:normal;font-size:medium;line-height:normal;font-family:sans-serif;font-variant-ligatures:normal;font-variant-position:normal;font-variant-caps:normal;font-variant-numeric:normal;font-variant-alternates:normal;font-feature-settings:normal;text-indent:0;text-align:start;text-decoration:none;text-decoration-line:none;text-decoration-style:solid;text-decoration-color:#000000;letter-spacing:normal;word-spacing:normal;text-transform:none;writing-mode:lr-tb;direction:ltr;text-orientation:mixed;dominant-baseline:auto;baseline-shift:baseline;text-anchor:start;white-space:normal;shape-padding:0;clip-rule:nonzero;display:inline;overflow:visible;visibility:visible;opacity:1;isolation:auto;mix-blend-mode:normal;color-interpolation:sRGB;color-interpolation-filters:linearRGB;solid-color:#000000;solid-opacity:1;vector-effect:none;fill:#f2f2f2;fill-opacity:1;fill-rule:nonzero;stroke:#ff0000;stroke-width:0.00999997;stroke-linecap:square;stroke-linejoin:miter;stroke-miterlimit:4;stroke-dasharray:none;stroke-dashoffset:0;stroke-opacity:1;color-rendering:auto;image-rendering:auto;shape-rendering:auto;text-rendering:auto;enable-background:accumulate"
       d="m 49.164684,156.93753 c -1.982102,3.3296 -4.37647,6.7258 -6.387772,10.0414 -0.376399,0.7505 -0.7611,1.5176 -1.067199,2.2789 1.581499,2.1656 4.208801,3.3124 6.7452,3.9311 0.3404,0.1568 1.028999,-0.021 1.1177,0.3456 0.057,1.2894 0.091,2.5795 0.1279,3.8696 -0.6223,-0.091 -1.1498,0.001 -1.387499,0.653 -0.834602,1.1797 -1.669301,2.3593 -2.5039,3.5389 1.0356,1.4642 2.0716,2.928 3.107399,4.392 l -3.107399,4.392 c 0.9886,1.3974 1.976998,2.7948 2.966,4.192 h 4.1445 c 1.036198,-1.4636 2.070798,-2.9284 3.106298,-4.3926 h 4.351102 c 0.988999,-1.3968 1.976498,-2.7947 2.9649,-4.192 -0.988201,-1.3975 -1.976501,-2.795 -2.964702,-4.1925 h -4.354099 c -1.0355,-1.4645 -2.071201,-2.9289 -3.106799,-4.3934 -0.774102,0.1683 -1.0967,-0.1158 -0.9209,-0.8996 0,-0.9941 -0.014,-1.9885 -0.061,-2.9816 3.8144,-0.017 7.7842,-1.2524 10.623,-3.835 0.572198,-0.7851 -0.266401,-1.6231 -0.661602,-2.2776 -0.623398,-0.9991 -1.038299,-2.1107 -1.633098,-3.1305 -1.3144,-2.408 -2.4844,-4.9922 -4.408601,-6.9852 -0.1793,-0.1491 -0.5387,-0.5952 -0.4201,-0.063 v 14.1722 h -6.199831 v -14.5763 l -0.053,0.085 z"
       id="path4896-0-0-4-1-9-1-6-8-5-4-1-7-0-1-3"
       inkscape:connector-curvature="0"
       sodipodi:nodetypes="cccccccccccccccccccccccccccccc" />
    <path
       style="color:#000000;font-style:normal;font-variant:normal;font-weight:normal;font-stretch:normal;font-size:medium;line-height:normal;font-family:sans-serif;font-variant-ligatures:normal;font-variant-position:normal;font-variant-caps:normal;font-variant-numeric:normal;font-variant-alternates:normal;font-feature-settings:normal;text-indent:0;text-align:start;text-decoration:none;text-decoration-line:none;text-decoration-style:solid;text-decoration-color:#000000;letter-spacing:normal;word-spacing:normal;text-transform:none;writing-mode:lr-tb;direction:ltr;text-orientation:mixed;dominant-baseline:auto;baseline-shift:baseline;text-anchor:start;white-space:normal;shape-padding:0;clip-rule:nonzero;display:inline;overflow:visible;visibility:visible;opacity:1;isolation:auto;mix-blend-mode:normal;color-interpolation:sRGB;color-interpolation-filters:linearRGB;solid-color:#000000;solid-opacity:1;vector-effect:none;fill:#f2f2f2;fill-opacity:1;fill-rule:nonzero;stroke:#ff0000;stroke-width:0.00999997;stroke-linecap:square;stroke-linejoin:miter;stroke-miterlimit:4;stroke-dasharray:none;stroke-dashoffset:0;stroke-opacity:1;color-rendering:auto;image-rendering:auto;shape-rendering:auto;text-rendering:auto;enable-background:accumulate"
       d="m 76.763273,156.93753 c -1.9821,3.3296 -4.37647,6.7258 -6.38777,10.0414 -0.376399,0.7505 -0.7611,1.5176 -1.067199,2.2789 1.581499,2.1656 4.208799,3.3124 6.745199,3.9311 0.3404,0.1568 1.029,-0.021 1.1177,0.3456 0.057,1.2894 0.091,2.5795 0.1279,3.8696 -0.6223,-0.091 -1.1498,0.001 -1.3875,0.653 -0.8346,1.1797 -1.6693,2.3593 -2.5039,3.5389 1.0356,1.4642 2.0716,2.928 3.1074,4.392 l -3.1074,4.392 c 0.9886,1.3974 1.977,2.7948 2.966,4.192 h 4.1445 c 1.0362,-1.4636 2.0708,-2.9284 3.1063,-4.3926 h 4.3511 c 0.989,-1.3968 1.9765,-2.7947 2.9649,-4.192 -0.9882,-1.3975 -1.9765,-2.795 -2.9647,-4.1925 h -4.3541 c -1.0355,-1.4645 -2.0712,-2.9289 -3.1068,-4.3934 -0.7741,0.1683 -1.0967,-0.1158 -0.9209,-0.8996 0,-0.9941 -0.014,-1.9885 -0.061,-2.9816 3.8144,-0.017 7.7842,-1.2524 10.623,-3.835 0.5722,-0.7851 -0.2664,-1.6231 -0.6616,-2.2776 -0.6234,-0.9991 -1.0383,-2.1107 -1.6331,-3.1305 -1.3144,-2.408 -2.4844,-4.9922 -4.4086,-6.9852 -0.1793,-0.1491 -0.5387,-0.5952 -0.4201,-0.063 v 14.1722 h -6.19983 v -14.5763 l -0.053,0.085 z"
       id="path4896-0-0-4-1-9-1-6-8-5-4-1-7-0-1-6"
       inkscape:connector-curvature="0"
       sodipodi:nodetypes="cccccccccccccccccccccccccccccc" />
    <path
       style="color:#000000;font-style:normal;font-variant:normal;font-weight:normal;font-stretch:normal;font-size:medium;line-height:normal;font-family:sans-serif;font-variant-ligatures:normal;font-variant-position:normal;font-variant-caps:normal;font-variant-numeric:normal;font-variant-alternates:normal;font-feature-settings:normal;text-indent:0;text-align:start;text-decoration:none;text-decoration-line:none;text-decoration-style:solid;text-decoration-color:#000000;letter-spacing:normal;word-spacing:normal;text-transform:none;writing-mode:lr-tb;direction:ltr;text-orientation:mixed;dominant-baseline:auto;baseline-shift:baseline;text-anchor:start;white-space:normal;shape-padding:0;clip-rule:nonzero;display:inline;overflow:visible;visibility:visible;opacity:1;isolation:auto;mix-blend-mode:normal;color-interpolation:sRGB;color-interpolation-filters:linearRGB;solid-color:#000000;solid-opacity:1;vector-effect:none;fill:#f2f2f2;fill-opacity:1;fill-rule:nonzero;stroke:#ff0000;stroke-width:0.00999997;stroke-linecap:square;stroke-linejoin:miter;stroke-miterlimit:4;stroke-dasharray:none;stroke-dashoffset:0;stroke-opacity:1;color-rendering:auto;image-rendering:auto;shape-rendering:auto;text-rendering:auto;enable-background:accumulate"
       d="m 67.321491,208.72572 c -2.133899,2.5612 -3.4974,5.63969 -5.144699,8.51328 -0.589499,1.0583 -1.176901,2.1806 -1.5939,3.2818 0.2326,0.3287 0.503801,0.6275 0.782201,0.9176 -0.807001,0.7349 -1.618001,1.4651 -2.430301,2.1943 -0.868201,-0.2964 -1.736299,-0.5931 -2.6045,-0.8896 -1.3871,1.0032 -2.7743,2.0063 -4.161499,3.0095 0.506899,1.7202 1.014097,3.4402 1.521298,5.1602 -1.4527,1.0511 -2.905598,2.1019 -4.358399,3.1529 0.483701,1.6418 0.967301,3.2835 1.450999,4.9252 l 3.922202,1.3389 c 1.386797,-1.0035 2.773598,-2.00689 4.160398,-3.0104 -0.506899,-1.7198 -1.013799,-3.4396 -1.520698,-5.1593 1.4531,-1.051 2.906498,-2.1016 4.359799,-3.1524 -0.370001,-1.2554 -0.739802,-2.5109 -1.110201,-3.7662 0.909102,-0.7749 1.8209,-1.5474 2.6971,-2.3598 1.601901,0.8865 3.311501,1.5169 5.135901,1.7354 0.061,1.3442 0.096,2.6892 0.1352,4.0342 -0.622401,-0.091 -1.1501,0.001 -1.3877,0.653 -0.834599,1.1797 -1.669201,2.3593 -2.5037,3.539 1.035399,1.4641 2.071299,2.9281 3.107199,4.3919 -1.035699,1.4641 -2.0715,2.928 -3.107199,4.392 0.988399,1.3975 1.976999,2.7948 2.9658,4.19201 h 4.144701 c 1.0361,-1.46361 2.070798,-2.9283 3.1062,-4.39241 h 4.351201 c 0.988899,-1.39679 1.976496,-2.79469 2.964799,-4.1919 l -2.964603,-4.1928 h -4.354098 c -1.0355,-1.4644 -2.071101,-2.9288 -3.1066,-4.3932 -0.7742,0.1682 -1.097,-0.1156 -0.9211,-0.8996 0,-0.9942 -0.014,-1.9887 -0.061,-2.982 3.822599,-0.024 7.756998,-1.2361 10.623499,-3.8356 0.5695,-0.7875 -0.2652,-1.621 -0.6623,-2.2766 -0.583102,-0.9214 -0.951,-1.94999 -1.547101,-2.86219 -1.408199,-2.3555 -3.252319,-4.80869 -5.61672,-6.30159 -1.1733,4.41189 -2.346399,8.82378 -3.5199,13.23558 -2.127999,-0.5511 -3.95628,-1.1024 -6.084279,-1.6534 1.109499,-4.1144 2.226599,-8.24109 3.3318,-12.34778 z"
       id="path4896-0-0-4-1-9-1-6-8-5-9-2-2-1-5-9-7"
       inkscape:connector-curvature="0"
       sodipodi:nodetypes="cccccccccccccccccccccccccccccccccccccccc" />
    <path
       style="color:#000000;font-style:normal;font-variant:normal;font-weight:normal;font-stretch:normal;font-size:medium;line-height:normal;font-family:sans-serif;font-variant-ligatures:normal;font-variant-position:normal;font-variant-caps:normal;font-variant-numeric:normal;font-variant-alternates:normal;font-feature-settings:normal;text-indent:0;text-align:start;text-decoration:none;text-decoration-line:none;text-decoration-style:solid;text-decoration-color:#000000;letter-spacing:normal;word-spacing:normal;text-transform:none;writing-mode:lr-tb;direction:ltr;text-orientation:mixed;dominant-baseline:auto;baseline-shift:baseline;text-anchor:start;white-space:normal;shape-padding:0;clip-rule:nonzero;display:inline;overflow:visible;visibility:visible;opacity:1;isolation:auto;mix-blend-mode:normal;color-interpolation:sRGB;color-interpolation-filters:linearRGB;solid-color:#000000;solid-opacity:1;vector-effect:none;fill:#f2f2f2;fill-opacity:1;fill-rule:nonzero;stroke:#ff0000;stroke-width:0.00999997;stroke-linecap:square;stroke-linejoin:miter;stroke-miterlimit:4;stroke-dasharray:none;stroke-dashoffset:0;stroke-opacity:1;color-rendering:auto;image-rendering:auto;shape-rendering:auto;text-rendering:auto;enable-background:accumulate"
       d="m 71.543813,271.04371 c -0.3868,0.2885 -1.0663,-0.5198 -1.5721,-0.6771 -1.2364,-0.7137 -2.4729,-1.4275 -3.7093,-2.1413 -0.1576,0.382 -0.381,0.7811 -0.4694,1.162 0.232,0.3272 0.5023,0.6245 0.7795,0.9134 -0.807,0.735 -1.618,1.4653 -2.430198,2.1946 -0.8683,-0.2965 -1.7365,-0.5933 -2.6047,-0.8899 -1.3871,1.0032 -2.7742,2.0064 -4.1613,3.0096 0.5068,1.7201 1.014,3.4401 1.5212,5.1601 -1.4527,1.0511 -2.9056,2.102 -4.3584,3.153 0.4836,1.6418 0.9673,3.2836 1.451,4.9254 1.3074,0.4462 2.614899,0.8924 3.9223,1.3386 1.3868,-1.0034 2.7735,-2.0067 4.1603,-3.0101 -0.5069,-1.7198 -1.0139,-3.4396 -1.5209,-5.1594 1.4533,-1.051 2.906798,-2.1017 4.360198,-3.1525 -0.3701,-1.2554 -0.7402,-2.5109 -1.1104,-3.7662 0.9091,-0.7749 1.8209,-1.5474 2.6971,-2.3596 3.4349,1.9961 7.665701,2.3166 11.525802,1.4184 2.448201,-0.5982 4.799395,-1.6741 6.643105,-3.4108 0.5112,-0.8216 -0.35401,-1.6312 -0.7439,-2.3023 -0.5686,-0.9526 -0.9741,-1.9928 -1.5797,-2.9299 -1.420206,-2.3492 -2.973804,-4.8018 -5.383405,-6.2504 -2.472301,4.2581 -4.944501,8.5163 -7.416802,12.7744 z"
       id="path4884-4-7-0-7-8-5-6-9-0-1-6-1-6-4-5"
       inkscape:connector-curvature="0" />
    <path
       style="color:#000000;font-style:normal;font-variant:normal;font-weight:normal;font-stretch:normal;font-size:medium;line-height:normal;font-family:sans-serif;font-variant-ligatures:normal;font-variant-position:normal;font-variant-caps:normal;font-variant-numeric:normal;font-variant-alternates:normal;font-feature-settings:normal;text-indent:0;text-align:start;text-decoration:none;text-decoration-line:none;text-decoration-style:solid;text-decoration-color:#000000;letter-spacing:normal;word-spacing:normal;text-transform:none;writing-mode:lr-tb;direction:ltr;text-orientation:mixed;dominant-baseline:auto;baseline-shift:baseline;text-anchor:start;white-space:normal;shape-padding:0;clip-rule:nonzero;display:inline;overflow:visible;visibility:visible;opacity:1;isolation:auto;mix-blend-mode:normal;color-interpolation:sRGB;color-interpolation-filters:linearRGB;solid-color:#000000;solid-opacity:1;vector-effect:none;fill:#f2f2f2;fill-opacity:1;fill-rule:nonzero;stroke:#ff0000;stroke-width:0.00999997;stroke-linecap:square;stroke-linejoin:miter;stroke-miterlimit:4;stroke-dasharray:none;stroke-dashoffset:0;stroke-opacity:1;color-rendering:auto;image-rendering:auto;shape-rendering:auto;text-rendering:auto;enable-background:accumulate"
       d="m 104.36185,156.93753 c -1.9821,3.3296 -4.376467,6.7258 -6.387767,10.0414 -0.3764,0.7505 -0.7611,1.5176 -1.0672,2.2789 1.5815,2.1656 4.208797,3.3124 6.745197,3.9311 0.3404,0.1568 1.029,-0.021 1.1177,0.3456 0.057,1.2894 0.091,2.5795 0.1279,3.8696 -0.6223,-0.091 -1.1498,0.001 -1.3875,0.653 -0.8346,1.1797 -1.6693,2.3593 -2.5039,3.5389 1.0356,1.4642 2.0716,2.928 3.1074,4.392 l -3.1074,4.392 c 0.9886,1.3974 1.977,2.7948 2.966,4.192 h 4.1445 c 1.0362,-1.4636 2.0708,-2.9284 3.1063,-4.3926 h 4.3511 c 0.989,-1.3968 1.9765,-2.7947 2.9649,-4.192 -0.9882,-1.3975 -1.9765,-2.795 -2.9647,-4.1925 h -4.3541 c -1.0355,-1.4645 -2.0712,-2.9289 -3.1068,-4.3934 -0.7741,0.1683 -1.0967,-0.1158 -0.9209,-0.8996 0,-0.9941 -0.014,-1.9885 -0.061,-2.9816 3.8144,-0.017 7.7842,-1.2524 10.623,-3.835 0.5722,-0.7851 -0.2664,-1.6231 -0.6616,-2.2776 -0.6234,-0.9991 -1.0383,-2.1107 -1.6331,-3.1305 -1.3144,-2.408 -2.4844,-4.9922 -4.4086,-6.9852 -0.1793,-0.1491 -0.5387,-0.5952 -0.4201,-0.063 v 14.1722 h -6.19983 v -14.5763 l -0.053,0.085 z"
       id="path4896-0-0-4-1-9-1-6-8-5-4-1-7-0-1-6-3"
       inkscape:connector-curvature="0"
       sodipodi:nodetypes="cccccccccccccccccccccccccccccc" />
  </g>
</svg>
